**ABCDEFGHIJKLMNOPQRSTUVWXYZabcdefghijklmnopqrstuvwxyz**************************
**PARASOLID !"#$%&'()*+,-./:;<=>?@[\]^_`{|}~0123456789**************************
**PART1;
MC=AMD64;
MC_MODEL=Intel64 Family 6 Model 71 Stepping 1, GenuineIntel;
MC_ID=unknown;
OS=Windows_NT;
OS_RELEASE=unknown;
FRU=Parasolid Version 29.0, build 195, 12- 2-2016;
APPL=SOLIDWORKS 2017-2017109;
SITE=;
USER=unknown;
FORMAT=text;
GUISE=transmit;
KEY=makeProjectedPlanarWire;
FILE=makeProjectedPlanarWire.x_t;
DATE=Mon Jul 30 14:47:32 2018;
**PART2;
SCH=SCH_2900195_28101;
USFLD_SIZE=0;
**PART3;
**END_OF_HEADER*****************************************************************
T51 : TRANSMIT FILE created by modeller version 290019523 SCH_2900195_28101_1300
6203 0 12 33 CCCCCCI4 mesh1006 0 I8 polyline1008 0 CCCCCCCDI5 owner1040 0 CCCCCC
I13 boundary_mesh1006 0 I17 boundary_polyline1008 0 CCCA16 index_map_offset0 0 1
 dA9 index_map82 0 A17 node_id_index_map82 0 A20 schema_embedding_map82 0 A5 chi
ld12 0 A14 lowest_node_id0 0 1 dZ1 716 0 0 0 0 0 0 0 0 1e3 1e-8 0 2 0 1 0 3 1 3
 4 5 6 0 0 7 8 9 0 0 0 0 0 0 13 255 3 137 0 1 0 10 0 0 7 10 50 255 4 2 0 10 0 0
 0 +0 0 0 0 0 1 1 0 0 31 255 5 84 0 8 11 0 0 +-.013 .008 0 0 0 1 1 0 0 .002 29 2
55 6 135 0 9 12 0 -.013 .01 0 19 8 CCCCCCCA5 owner12 0 Z7 136 0 1 0 0 3 V0 16 25
5 8 83 0 ?13 0 14 5 0 0 1 18 255 9 133 0 15 0 16 6 ?1 17 255 15 0 0 0 0 9 17 18
 0 19 -18 16 130 0 20 9 21 12 ?1 17 20 0 22 19 23 16 24 14 0 13 +18 21 127 0 23
 16 25 26 ?1 29 12 132 0 16 26 6 -.015 .008 0 29 26 129 0 21 27 12 -.015 -.008 0
 29 27 126 0 25 28 26 -.013 -.01 0 18 25 124 0 29 21 30 27 ?1 29 28 123 0 30 31
 27 .013 -.01 0 18 30 121 0 32 25 33 28 ?1 29 31 120 0 33 34 28 .015 -.008 0 18
 33 118 0 35 30 36 31 ?1 29 34 117 0 36 37 31 .015 .008 0 18 36 115 0 38 33 39 3
4 ?1 29 37 114 0 39 40 34 .013 .01 0 18 39 112 0 17 36 41 37 ?1 29 40 111 0 41 4
2 37 .015 .012 0 18 41 109 0 43 39 44 40 ?1 29 42 108 0 44 45 40 .017 .01 0 18 4
4 106 0 46 41 47 42 ?1 29 45 105 0 47 48 42 .017 -.01 0 18 47 103 0 49 44 50 45
 ?1 29 48 102 0 50 51 45 .015 -.012 0 18 50 100 0 52 47 53 48 ?1 29 51 99 0 53 5
4 48 -.015 -.012 0 18 53 97 0 55 50 56 51 ?1 29 54 96 0 56 57 51 -.017 -.01 0 18
 56 94 0 58 53 59 54 ?1 29 57 93 0 59 60 54 -.017 .01 0 18 59 91 0 61 56 62 57 ?
1 29 60 90 0 62 0 57 -.015 .012 0 18 62 88 0 63 59 0 60 ?1 17 63 0 64 61 65 62 4
3 66 0 67 -15 255 64 6 0 63 10 22 17 61 0 64 58 63 59 67 68 0 69 +17 65 0 64 63
 46 41 70 71 0 0 -17 43 0 0 0 0 41 63 66 0 65 +16 66 8 0 ?43 68 0 72 0 0 1 17 67
 0 0 0 0 62 61 68 0 0 -16 68 13 0 ?61 73 66 74 0 0 1 16 73 18 0 ?69 75 68 76 0 0
 1 31 74 14 0 68 72 76 0 +-.015 .01 0 0 0 1 1 0 0 .002 30 255 72 9 0 66 0 74 0 +
0 .012 0 1 0 0 30 76 19 0 73 74 77 0 +-.017 0 0 0 1 0 31 77 24 0 75 76 78 0 +-.0
15 -.01 0 0 0 1 1 0 0 .002 16 75 23 0 ?55 79 73 77 0 0 1 30 78 29 0 79 77 80 0 +
1387778780781446e-33 -.012 0 1 1156482317317872e-31 0 16 79 28 0 ?52 81 75 78 0
 0 1 31 80 34 0 81 78 82 0 -.015 -.01 0 0 0 1 1 0 0 .002 16 81 33 0 ?83 84 79 80
 0 0 1 30 82 39 0 84 80 85 0 +.017 0 0 0 1 0 16 84 38 0 ?46 71 81 82 0 0 1 31 85
 44 0 71 82 86 0 -.015 .01 0 0 0 1 1 0 0 .002 16 71 43 0 ?70 18 84 85 0 0 1 30 8
6 49 0 18 85 87 0 +-1334402673828314e-33 .01 0 1 1334402673828314e-31 0 16 18 48
 0 ?17 88 71 86 0 0 1 31 87 54 0 88 86 89 0 -.013 .008 0 0 0 1 1 0 0 .002 16 88
 53 0 ?38 90 18 87 0 0 1 30 89 59 0 90 87 91 0 +.015 162630325872826e-32 0 -1084
202172485504e-31 1 0 16 90 58 0 ?92 93 88 89 0 0 1 31 91 64 0 93 89 94 0 -.013 -
.008 0 0 0 1 1 0 0 .002 16 93 63 0 ?32 95 90 91 0 0 1 30 94 69 0 95 91 96 0 +133
4402673828312e-33 -.01 0 1 1334402673828312e-31 0 16 95 68 0 ?97 98 93 94 0 0 1
 31 96 74 0 98 94 11 0 +-.013 -.008 0 0 0 1 1 0 0 .002 16 98 73 0 ?99 14 95 96 0
 0 1 30 11 79 0 14 96 5 0 +-.015 -162630325872826e-32 0 -1084202172485504e-31 1
 0 16 14 78 0 ?20 8 98 11 0 0 1 17 99 0 0 0 0 25 23 98 0 0 +17 23 0 22 20 29 21
 99 98 0 24 -15 22 7 0 17 10 0 17 29 0 22 23 32 25 97 95 0 99 -17 24 0 0 0 0 21
 20 14 0 0 -17 32 0 22 29 35 30 100 93 0 97 +17 97 0 0 0 0 30 29 95 0 0 +17 35 0
 22 32 38 33 92 90 0 100 -17 100 0 0 0 0 33 32 93 0 0 -17 38 0 22 35 17 36 101 8
8 0 92 +17 92 0 0 0 0 36 35 90 0 0 +17 17 0 22 38 19 39 15 18 0 101 +17 101 0 0
 0 0 39 38 88 0 0 -17 19 0 22 17 20 9 13 8 0 0 -17 13 0 0 0 0 16 19 8 0 0 +14 25
5 10 1 0 ?0 0 64 3 4 +0 0 0 0 3 17 70 0 0 0 0 44 65 71 0 0 +17 46 0 64 65 49 44
 102 84 0 70 +17 49 0 64 46 52 47 83 81 0 102 -17 102 0 0 0 0 47 46 84 0 0 -17 5
2 0 64 49 55 50 103 79 0 83 +17 83 0 0 0 0 50 49 81 0 0 +17 55 0 64 52 58 53 104
 75 0 103 +17 103 0 0 0 0 53 52 79 0 0 -17 58 0 64 55 61 56 69 73 0 104 -17 104
 0 0 0 0 56 55 75 0 0 -17 69 0 0 0 0 59 58 73 0 0 +1 0 
